# xmcd
#
# Track frame offsets:
#	150
#	23114
#	40094
#	69816
#	90915
#	113105
#	130014
#	147691
#
# Disc length: 2466 seconds
#
# Revision: 1
# Processed by: cddbd v1.5.1PL0 Copyright (c) Steve Scherf et al.
# Submitted via: CDex 1.50Beta5
#
DISCID=6009a008
DTITLE=Yancy K将モr将モssy - Identification
DYEAR=1900
DGENRE=Jazz
TTITLE0=All The Things You Are
TTITLE1=Bye Bye Blackbird
TTITLE2=Sorrow
TTITLE3=Stella By Starlight
TTITLE4=Idnetification
TTITLE5=I Can't Give You Anything But Love
TTITLE6=I'm on My Way
TTITLE7=Stompin' at The Savoy
EXTD=
EXTT0=
EXTT1=
EXTT2=
EXTT3=
EXTT4=
EXTT5=
EXTT6=
EXTT7=
PLAYORDER=
